<svg width="640" height="197" xmlns="http://www.w3.org/2000/svg" fill="none">
 <defs>
  <clipPath id="clip0">
   <rect id="svg_1" x="0" y="0.04083" fill="white" height="196" width="640"/>
  </clipPath>
 </defs>
 <g>
  <title>Layer 1</title>
  <rect stroke="null" x="-7.96539" id="svg_3" fill="#0C29D0" height="202.97138" width="655.23811" y="0.15802"/>
  <mask stroke="null" height="83" width="84" y="0" x="556" maskUnits="userSpaceOnUse" mask-type="alpha" id="mask0">
   <rect stroke="null" id="svg_4" fill="#C4C4C4" height="82" width="84" y="0.04083" x="556"/>
  </mask>
  <g stroke="null" id="svg_5" mask="url(#mask0)">
   <path stroke="null" id="svg_6" fill="#4756F6" d="m640,-72.95919c-41.419,0 -75,34.38 -75,76.7847c0,42.40472 33.581,76.78462 75,76.78462c41.419,0 75,-34.3799 75,-76.78462c0,-42.4047 -33.581,-76.7847 -75,-76.7847zm0,114.47627c-20.334,0 -36.829,-16.87401 -36.829,-37.70531c0,-20.83135 16.482,-37.70527 36.829,-37.70527c20.334,0 36.829,16.87391 36.829,37.70527c0,20.83129 -16.495,37.70531 -36.829,37.70531z"/>
  </g>
  <rect stroke="null" id="svg_7" fill="#4EE5A5" height="18.30628" width="49" y="157.90351" x="584"/>
  <circle stroke="null" id="svg_8" fill="#F9B900" r="27.5" cy="198.07562" cx="307.5"/>
  <path stroke="null" id="svg_10" fill="#0C29D0" d="m258.364,111.89373l0,12.44827l1.936,0l0,-4.91422c0.64,0.71598 1.616,1.04142 2.48,1.04142c2.352,0 3.984,-2.06658 3.984,-4.36096c0,-2.45711 -1.696,-4.40978 -3.952,-4.40978c-0.912,0 -2,0.37426 -2.576,1.26924l-0.112,-1.07397l-1.76,0zm1.936,2.83137c0.464,-0.91125 1.36,-1.30178 2.144,-1.30178c1.44,0 2.352,1.26924 2.352,2.6361c0,1.28551 -0.768,2.68492 -2.384,2.68492c-0.768,0 -1.552,-0.32544 -2.112,-1.0577l0,-2.96155zm10.028,-2.83137l-1.776,0l0,8.38021l1.952,0l0,-5.64647c0.4,-0.71598 0.992,-1.12279 1.696,-1.12279c0.304,0 0.544,0.04882 0.784,0.17899l0.432,-1.83876c-0.304,-0.09763 -0.608,-0.14645 -0.992,-0.14645c-0.848,0 -1.504,0.56953 -2,1.38314l-0.096,-1.18787zm11.443,4.68641c0.048,-0.30917 0.08,-0.68343 0.08,-0.99261c0,-2.24557 -1.648,-3.88907 -3.888,-3.88907c-2.336,0 -4.144,1.92013 -4.144,4.44232c0,2.48965 1.6,4.32842 4.144,4.32842c1.712,0 2.784,-0.65089 3.696,-2.01776l-1.312,-0.89497c-0.512,0.8787 -1.2,1.30178 -2.272,1.30178c-1.344,0 -2.176,-1.02515 -2.304,-2.27811l6,0zm-1.904,-1.41569l-3.984,0c0.256,-1.07397 0.944,-1.88758 2.128,-1.88758c1.024,0 1.808,0.79734 1.856,1.88758zm9.138,2.96155c-0.464,0.40681 -1.056,0.61835 -1.648,0.61835c-1.28,0 -2.352,-1.10651 -2.352,-2.66865c0,-1.4645 1.024,-2.65238 2.368,-2.65238c0.608,0 1.168,0.22781 1.632,0.63462l0.96,-1.4645c-0.736,-0.56953 -1.648,-0.89497 -2.656,-0.89497c-2.48,0 -4.272,1.9364 -4.272,4.37723c0,2.61983 1.792,4.39351 4.192,4.39351c1.104,0 2.064,-0.30917 2.784,-0.94379l-1.008,-1.39941zm4.514,2.14794l0,-8.38021l-1.936,0l0,8.38021l1.936,0zm0,-9.74708l0,-1.83876l-1.936,0l0,1.83876l1.936,0zm7.8,2.19675c-0.72,-0.68343 -1.696,-1.02515 -2.72,-1.02515c-1.456,0 -2.832,0.82988 -2.832,2.53847c0,1.49705 1.248,2.06658 2.224,2.47338c0.736,0.30917 1.536,0.63462 1.536,1.22042c0,0.66716 -0.64,0.96006 -1.232,0.96006c-0.736,0 -1.296,-0.34172 -1.888,-0.94379l-1.184,1.13906c0.8,0.89497 1.904,1.38314 3.12,1.38314c1.6,0 3.104,-0.81361 3.104,-2.66865c0,-1.54586 -1.344,-2.11539 -2.4,-2.53847c-0.736,-0.30917 -1.424,-0.60207 -1.424,-1.1716c0,-0.50444 0.416,-0.81361 0.976,-0.81361c0.608,0 1.232,0.2929 1.632,0.65089l1.088,-1.20415zm5.756,-1.02515c-2.464,0 -4.272,1.9364 -4.272,4.37723c0,2.45711 1.808,4.39351 4.272,4.39351c2.464,0 4.272,-1.9364 4.272,-4.39351c0,-2.44084 -1.808,-4.37723 -4.272,-4.37723zm2.304,4.37723c0,1.48077 -0.96,2.66865 -2.304,2.66865c-1.344,0 -2.304,-1.18787 -2.304,-2.66865c0,-1.4645 0.96,-2.65238 2.304,-2.65238c1.344,0 2.304,1.18787 2.304,2.65238zm15.558,-8.00595l-1.952,0l0,4.68641c-0.64,-0.71598 -1.616,-1.0577 -2.464,-1.0577c-2.368,0 -3.984,2.06658 -3.984,4.36096c0,2.44084 1.68,4.40978 3.952,4.40978c0.912,0 1.984,-0.35799 2.576,-1.26924l0.096,1.07397l1.776,0l0,-12.20418zm-1.952,9.37281c-0.464,0.91125 -1.36,1.30178 -2.128,1.30178c-1.456,0 -2.352,-1.26924 -2.352,-2.6361c0,-1.28551 0.768,-2.68492 2.384,-2.68492c0.752,0 1.536,0.32544 2.096,1.0577l0,2.96155zm11.692,-0.86243c0.048,-0.30917 0.08,-0.68343 0.08,-0.99261c0,-2.24557 -1.648,-3.88907 -3.888,-3.88907c-2.336,0 -4.144,1.92013 -4.144,4.44232c0,2.48965 1.6,4.32842 4.144,4.32842c1.712,0 2.784,-0.65089 3.696,-2.01776l-1.312,-0.89497c-0.512,0.8787 -1.2,1.30178 -2.272,1.30178c-1.344,0 -2.176,-1.02515 -2.304,-2.27811l6,0zm-1.904,-1.41569l-3.984,0c0.256,-1.07397 0.944,-1.88758 2.128,-1.88758c1.024,0 1.808,0.79734 1.856,1.88758zm14.467,5.10949l0,-5.06067c0,-2.18048 -1.008,-3.51481 -3.344,-3.51481c-1.184,0 -2.448,0.34172 -3.424,0.82988l0.528,1.48077c0.704,-0.37426 1.616,-0.73225 2.544,-0.73225c1.264,0 1.76,0.68343 1.76,1.82249l0,0.19527c-0.608,-0.13018 -1.12,-0.17899 -1.552,-0.17899c-1.744,0 -3.632,0.65089 -3.632,2.73374c0,1.7574 1.424,2.61983 2.96,2.61983c0.944,0 1.744,-0.26036 2.336,-0.97633l0.096,0.78107l1.728,0zm-1.936,-2.09912c-0.56,0.48817 -1.152,0.82988 -1.872,0.82988c-0.752,0 -1.408,-0.37426 -1.408,-1.22042c0,-1.09024 1.104,-1.38314 2.016,-1.38314c0.368,0 0.768,0.04882 1.264,0.16272l0,1.61095zm6.311,-7.64796l0,-1.83876l-1.936,0l0,1.83876l1.936,0zm0,1.36687l-1.936,0l0,8.80329c0,0.84616 -0.064,1.52959 -0.96,1.52959c-0.352,0 -0.672,-0.08136 -0.944,-0.21154l-0.528,1.56214c0.512,0.24408 1.088,0.35799 1.696,0.35799c1.168,0 1.888,-0.43935 2.272,-1.13906c0.304,-0.48817 0.4,-1.10651 0.4,-1.87131l0,-9.0311zm9.813,8.38021l0,-8.38021l-1.936,0l0,5.56511c-0.48,0.78107 -1.28,1.28551 -2.048,1.28551c-0.592,0 -1.008,-0.21154 -1.248,-0.63462c-0.304,-0.52071 -0.32,-1.30178 -0.32,-2.00149l0,-4.21451l-1.936,0l0,4.36096c0,1.22042 0.128,2.32693 0.736,3.14054c0.512,0.66716 1.28,1.07397 2.272,1.07397c0.992,0 1.968,-0.4719 2.624,-1.43196l0.096,1.23669l1.76,0zm10.197,-12.20418l-1.952,0l0,4.68641c-0.64,-0.71598 -1.616,-1.0577 -2.464,-1.0577c-2.368,0 -3.984,2.06658 -3.984,4.36096c0,2.44084 1.68,4.40978 3.952,4.40978c0.912,0 1.984,-0.35799 2.576,-1.26924l0.096,1.07397l1.776,0l0,-12.20418zm-1.952,9.37281c-0.464,0.91125 -1.36,1.30178 -2.128,1.30178c-1.456,0 -2.352,-1.26924 -2.352,-2.6361c0,-1.28551 0.768,-2.68492 2.384,-2.68492c0.752,0 1.536,0.32544 2.096,1.0577l0,2.96155zm11.035,2.83137l0,-5.06067c0,-2.18048 -1.008,-3.51481 -3.344,-3.51481c-1.184,0 -2.448,0.34172 -3.424,0.82988l0.528,1.48077c0.704,-0.37426 1.616,-0.73225 2.544,-0.73225c1.264,0 1.76,0.68343 1.76,1.82249l0,0.19527c-0.608,-0.13018 -1.12,-0.17899 -1.552,-0.17899c-1.744,0 -3.632,0.65089 -3.632,2.73374c0,1.7574 1.424,2.61983 2.96,2.61983c0.944,0 1.744,-0.26036 2.336,-0.97633l0.096,0.78107l1.728,0zm-1.936,-2.09912c-0.56,0.48817 -1.152,0.82988 -1.872,0.82988c-0.752,0 -1.408,-0.37426 -1.408,-1.22042c0,-1.09024 1.104,-1.38314 2.016,-1.38314c0.368,0 0.768,0.04882 1.264,0.16272l0,1.61095z"/>
  <path stroke="null" id="svg_11" fill="#0C29D0" d="m193,89.76327l253,0l0,-2.03403l-253,0l0,2.03403zm253,50.85097l-253,0l0,2.03403l253,0l0,-2.03403zm-253,0c-13.807,0 -25,-11.38345 -25,-25.42539l-2,0c0,15.16573 12.088,27.45942 27,27.45942l0,-2.03403zm278,-25.42539c0,14.04193 -11.193,25.42539 -25,25.42539l0,2.03403c14.912,0 27,-12.29368 27,-27.45942l-2,0zm-25,-25.42559c13.807,0 25,11.38366 25,25.42559l2,0c0,-15.16563 -12.088,-27.45962 -27,-27.45962l0,2.03403zm-253,-2.03403c-14.912,0 -27,12.29399 -27,27.45962l2,0c0,-14.04193 11.193,-25.42559 25,-25.42559l0,-2.03403z"/>
 </g>
</svg>