<svg width="640" height="196" viewBox="0 0 640 196" fill="none" xmlns="http://www.w3.org/2000/svg">
<g clip-path="url(#clip0)">
<rect y="0.000976562" width="640" height="196" fill="#E6EEFF"/>
<mask id="mask0" mask-type="alpha" maskUnits="userSpaceOnUse" x="556" y="0" width="84" height="83">
<rect x="556" y="0.000976562" width="84" height="82" fill="#C4C4C4"/>
</mask>
<g mask="url(#mask0)">
<path d="M640 -70.999C598.581 -70.999 565 -37.1943 565 4.50098C565 46.1962 598.581 80.001 640 80.001C681.419 80.001 715 46.1962 715 4.50098C715 -37.1943 681.419 -70.999 640 -70.999ZM640 41.5619C619.666 41.5619 603.171 24.9703 603.171 4.48747C603.171 -15.9953 619.653 -32.587 640 -32.587C660.334 -32.587 676.829 -15.9953 676.829 4.48747C676.829 24.9703 660.334 41.5619 640 41.5619Z" fill="#4756F6"/>
</g>
<rect x="584" y="156.001" width="49" height="18" fill="#4EE5A5"/>
<circle cx="307.5" cy="195.501" r="27.5" fill="#F9B900"/>
<path d="M167 114.001C167 99.6416 178.641 88.001 193 88.001H446C460.359 88.001 472 99.6416 472 114.001C472 128.36 460.359 140.001 446 140.001H193C178.641 140.001 167 128.36 167 114.001Z" fill="#0C29D0"/>
<path d="M258.364 110.761V123.001H260.3V118.169C260.94 118.873 261.916 119.193 262.78 119.193C265.132 119.193 266.764 117.161 266.764 114.905C266.764 112.489 265.068 110.569 262.812 110.569C261.9 110.569 260.812 110.937 260.236 111.817L260.124 110.761H258.364ZM260.3 113.545C260.764 112.649 261.66 112.265 262.444 112.265C263.884 112.265 264.796 113.513 264.796 114.857C264.796 116.121 264.028 117.497 262.412 117.497C261.644 117.497 260.86 117.177 260.3 116.457V113.545ZM270.328 110.761H268.552V119.001H270.504V113.449C270.904 112.745 271.496 112.345 272.2 112.345C272.504 112.345 272.744 112.393 272.984 112.521L273.416 110.713C273.112 110.617 272.808 110.569 272.424 110.569C271.576 110.569 270.92 111.129 270.424 111.929L270.328 110.761ZM281.771 115.369C281.819 115.065 281.851 114.697 281.851 114.393C281.851 112.185 280.203 110.569 277.963 110.569C275.627 110.569 273.819 112.457 273.819 114.937C273.819 117.385 275.419 119.193 277.963 119.193C279.675 119.193 280.747 118.553 281.659 117.209L280.347 116.329C279.835 117.193 279.147 117.609 278.075 117.609C276.731 117.609 275.899 116.601 275.771 115.369H281.771ZM279.867 113.977H275.883C276.139 112.921 276.827 112.121 278.011 112.121C279.035 112.121 279.819 112.905 279.867 113.977ZM289.005 116.889C288.541 117.289 287.949 117.497 287.357 117.497C286.077 117.497 285.005 116.409 285.005 114.873C285.005 113.433 286.029 112.265 287.373 112.265C287.981 112.265 288.541 112.489 289.005 112.889L289.965 111.449C289.229 110.889 288.317 110.569 287.309 110.569C284.829 110.569 283.037 112.473 283.037 114.873C283.037 117.449 284.829 119.193 287.229 119.193C288.333 119.193 289.293 118.889 290.013 118.265L289.005 116.889ZM293.519 119.001V110.761H291.583V119.001H293.519ZM293.519 109.417V107.609H291.583V109.417H293.519ZM301.319 111.577C300.599 110.905 299.623 110.569 298.599 110.569C297.143 110.569 295.767 111.385 295.767 113.065C295.767 114.537 297.015 115.097 297.991 115.497C298.727 115.801 299.527 116.121 299.527 116.697C299.527 117.353 298.887 117.641 298.295 117.641C297.559 117.641 296.999 117.305 296.407 116.713L295.223 117.833C296.023 118.713 297.127 119.193 298.343 119.193C299.943 119.193 301.447 118.393 301.447 116.569C301.447 115.049 300.103 114.489 299.047 114.073C298.311 113.769 297.623 113.481 297.623 112.921C297.623 112.425 298.039 112.121 298.599 112.121C299.207 112.121 299.831 112.409 300.231 112.761L301.319 111.577ZM307.075 110.569C304.611 110.569 302.803 112.473 302.803 114.873C302.803 117.289 304.611 119.193 307.075 119.193C309.539 119.193 311.347 117.289 311.347 114.873C311.347 112.473 309.539 110.569 307.075 110.569ZM309.379 114.873C309.379 116.329 308.419 117.497 307.075 117.497C305.731 117.497 304.771 116.329 304.771 114.873C304.771 113.433 305.731 112.265 307.075 112.265C308.419 112.265 309.379 113.433 309.379 114.873ZM324.937 107.001H322.985V111.609C322.345 110.905 321.369 110.569 320.521 110.569C318.153 110.569 316.537 112.601 316.537 114.857C316.537 117.257 318.217 119.193 320.489 119.193C321.401 119.193 322.473 118.841 323.065 117.945L323.161 119.001H324.937V107.001ZM322.985 116.217C322.521 117.113 321.625 117.497 320.857 117.497C319.401 117.497 318.505 116.249 318.505 114.905C318.505 113.641 319.273 112.265 320.889 112.265C321.641 112.265 322.425 112.585 322.985 113.305V116.217ZM334.677 115.369C334.725 115.065 334.757 114.697 334.757 114.393C334.757 112.185 333.109 110.569 330.869 110.569C328.533 110.569 326.725 112.457 326.725 114.937C326.725 117.385 328.325 119.193 330.869 119.193C332.581 119.193 333.653 118.553 334.565 117.209L333.253 116.329C332.741 117.193 332.053 117.609 330.981 117.609C329.637 117.609 328.805 116.601 328.677 115.369H334.677ZM332.773 113.977H328.789C329.045 112.921 329.733 112.121 330.917 112.121C331.941 112.121 332.725 112.905 332.773 113.977ZM347.24 119.001V114.025C347.24 111.881 346.232 110.569 343.896 110.569C342.712 110.569 341.448 110.905 340.472 111.385L341 112.841C341.704 112.473 342.616 112.121 343.544 112.121C344.808 112.121 345.304 112.793 345.304 113.913V114.105C344.696 113.977 344.184 113.929 343.752 113.929C342.008 113.929 340.12 114.569 340.12 116.617C340.12 118.345 341.544 119.193 343.08 119.193C344.024 119.193 344.824 118.937 345.416 118.233L345.512 119.001H347.24ZM345.304 116.937C344.744 117.417 344.152 117.753 343.432 117.753C342.68 117.753 342.024 117.385 342.024 116.553C342.024 115.481 343.128 115.193 344.04 115.193C344.408 115.193 344.808 115.241 345.304 115.353V116.937ZM351.615 109.417V107.609H349.679V109.417H351.615ZM351.615 110.761H349.679V119.417C349.679 120.249 349.615 120.921 348.719 120.921C348.367 120.921 348.047 120.841 347.775 120.713L347.247 122.249C347.759 122.489 348.335 122.601 348.943 122.601C350.111 122.601 350.831 122.169 351.215 121.481C351.519 121.001 351.615 120.393 351.615 119.641V110.761ZM361.428 119.001V110.761H359.492V116.233C359.012 117.001 358.212 117.497 357.444 117.497C356.852 117.497 356.436 117.289 356.196 116.873C355.892 116.361 355.876 115.593 355.876 114.905V110.761H353.94V115.049C353.94 116.249 354.068 117.337 354.676 118.137C355.188 118.793 355.956 119.193 356.948 119.193C357.94 119.193 358.916 118.729 359.572 117.785L359.668 119.001H361.428ZM371.625 107.001H369.673V111.609C369.033 110.905 368.057 110.569 367.209 110.569C364.841 110.569 363.225 112.601 363.225 114.857C363.225 117.257 364.905 119.193 367.177 119.193C368.089 119.193 369.161 118.841 369.753 117.945L369.849 119.001H371.625V107.001ZM369.673 116.217C369.209 117.113 368.313 117.497 367.545 117.497C366.089 117.497 365.193 116.249 365.193 114.905C365.193 113.641 365.961 112.265 367.577 112.265C368.329 112.265 369.113 112.585 369.673 113.305V116.217ZM380.708 119.001V114.025C380.708 111.881 379.7 110.569 377.364 110.569C376.18 110.569 374.916 110.905 373.94 111.385L374.468 112.841C375.172 112.473 376.084 112.121 377.012 112.121C378.276 112.121 378.772 112.793 378.772 113.913V114.105C378.164 113.977 377.652 113.929 377.22 113.929C375.476 113.929 373.588 114.569 373.588 116.617C373.588 118.345 375.012 119.193 376.548 119.193C377.492 119.193 378.292 118.937 378.884 118.233L378.98 119.001H380.708ZM378.772 116.937C378.212 117.417 377.62 117.753 376.9 117.753C376.148 117.753 375.492 117.385 375.492 116.553C375.492 115.481 376.596 115.193 377.508 115.193C377.876 115.193 378.276 115.241 378.772 115.353V116.937Z" fill="white"/>
<path d="M193 89.001H446V87.001H193V89.001ZM446 139.001H193V141.001H446V139.001ZM193 139.001C179.193 139.001 168 127.808 168 114.001H166C166 128.913 178.088 141.001 193 141.001V139.001ZM471 114.001C471 127.808 459.807 139.001 446 139.001V141.001C460.912 141.001 473 128.913 473 114.001H471ZM446 89.001C459.807 89.001 471 100.194 471 114.001H473C473 99.0893 460.912 87.001 446 87.001V89.001ZM193 87.001C178.088 87.001 166 99.0893 166 114.001H168C168 100.194 179.193 89.001 193 89.001V87.001Z" fill="#0C29D0"/>
<path d="M204.203 42.001H207.399C210.663 42.001 214.029 40.403 214.029 36C214.029 31.699 210.612 30.101 207.569 30.101H204.203V42.001ZM206.311 31.903H207.28C210.119 31.903 211.802 33.382 211.802 36.153C211.802 39.162 209.728 40.199 206.702 40.199H206.311V31.903ZM224.089 42.001V33.246H222.032V39.06C221.522 39.876 220.672 40.403 219.856 40.403C219.227 40.403 218.785 40.182 218.53 39.74C218.207 39.196 218.19 38.38 218.19 37.649V33.246H216.133V37.802C216.133 39.077 216.269 40.233 216.915 41.083C217.459 41.78 218.275 42.205 219.329 42.205C220.383 42.205 221.42 41.712 222.117 40.709L222.219 42.001H224.089ZM222.831 29.421L221.42 28.316L219.227 31.342L220.434 32.26L222.831 29.421ZM231.761 33.246L229.755 39.23H229.721L227.732 33.246H225.454L228.769 42.001H230.486L234.005 33.246H231.761ZM237.434 42.001V33.246H235.377V42.001H237.434ZM237.434 31.818V29.897H235.377V31.818H237.434ZM248.271 29.251H246.197V34.147C245.517 33.399 244.48 33.042 243.579 33.042C241.063 33.042 239.346 35.201 239.346 37.598C239.346 40.148 241.131 42.205 243.545 42.205C244.514 42.205 245.653 41.831 246.282 40.879L246.384 42.001H248.271V29.251ZM246.197 39.043C245.704 39.995 244.752 40.403 243.936 40.403C242.389 40.403 241.437 39.077 241.437 37.649C241.437 36.306 242.253 34.844 243.97 34.844C244.769 34.844 245.602 35.184 246.197 35.949V39.043ZM257.922 42.001V36.714C257.922 34.436 256.851 33.042 254.369 33.042C253.111 33.042 251.768 33.399 250.731 33.909L251.292 35.456C252.04 35.065 253.009 34.691 253.995 34.691C255.338 34.691 255.865 35.405 255.865 36.595V36.799C255.219 36.663 254.675 36.612 254.216 36.612C252.363 36.612 250.357 37.292 250.357 39.468C250.357 41.304 251.87 42.205 253.502 42.205C254.505 42.205 255.355 41.933 255.984 41.185L256.086 42.001H257.922ZM255.865 39.808C255.27 40.318 254.641 40.675 253.876 40.675C253.077 40.675 252.38 40.284 252.38 39.4C252.38 38.261 253.553 37.955 254.522 37.955C254.913 37.955 255.338 38.006 255.865 38.125V39.808ZM266.124 34.113C265.359 33.399 264.322 33.042 263.234 33.042C261.687 33.042 260.225 33.909 260.225 35.694C260.225 37.258 261.551 37.853 262.588 38.278C263.37 38.601 264.22 38.941 264.22 39.553C264.22 40.25 263.54 40.556 262.911 40.556C262.129 40.556 261.534 40.199 260.905 39.57L259.647 40.76C260.497 41.695 261.67 42.205 262.962 42.205C264.662 42.205 266.26 41.355 266.26 39.417C266.26 37.802 264.832 37.207 263.71 36.765C262.928 36.442 262.197 36.136 262.197 35.541C262.197 35.014 262.639 34.691 263.234 34.691C263.88 34.691 264.543 34.997 264.968 35.371L266.124 34.113ZM278.326 34.113C277.561 33.399 276.524 33.042 275.436 33.042C273.889 33.042 272.427 33.909 272.427 35.694C272.427 37.258 273.753 37.853 274.79 38.278C275.572 38.601 276.422 38.941 276.422 39.553C276.422 40.25 275.742 40.556 275.113 40.556C274.331 40.556 273.736 40.199 273.107 39.57L271.849 40.76C272.699 41.695 273.872 42.205 275.164 42.205C276.864 42.205 278.462 41.355 278.462 39.417C278.462 37.802 277.034 37.207 275.912 36.765C275.13 36.442 274.399 36.136 274.399 35.541C274.399 35.014 274.841 34.691 275.436 34.691C276.082 34.691 276.745 34.997 277.17 35.371L278.326 34.113ZM284.442 33.042C281.824 33.042 279.903 35.065 279.903 37.615C279.903 40.182 281.824 42.205 284.442 42.205C287.06 42.205 288.981 40.182 288.981 37.615C288.981 35.065 287.06 33.042 284.442 33.042ZM286.89 37.615C286.89 39.162 285.87 40.403 284.442 40.403C283.014 40.403 281.994 39.162 281.994 37.615C281.994 36.085 283.014 34.844 284.442 34.844C285.87 34.844 286.89 36.085 286.89 37.615ZM290.892 29.251V42.001H292.762L292.864 40.981C293.51 41.831 294.632 42.205 295.584 42.205C298.083 42.205 299.817 40.046 299.817 37.649C299.817 35.082 298.015 33.042 295.618 33.042C294.683 33.042 293.595 33.416 292.949 34.249V29.251H290.892ZM292.949 36.204C293.442 35.252 294.394 34.844 295.227 34.844C296.757 34.844 297.726 36.17 297.726 37.598C297.726 38.941 296.91 40.403 295.193 40.403C294.377 40.403 293.544 40.063 292.949 39.298V36.204ZM303.603 33.246H301.716V42.001H303.79V36.102C304.215 35.354 304.844 34.929 305.592 34.929C305.915 34.929 306.17 34.98 306.425 35.116L306.884 33.195C306.561 33.093 306.238 33.042 305.83 33.042C304.929 33.042 304.232 33.637 303.705 34.487L303.603 33.246ZM315.762 38.142C315.813 37.819 315.847 37.428 315.847 37.105C315.847 34.759 314.096 33.042 311.716 33.042C309.234 33.042 307.313 35.048 307.313 37.683C307.313 40.284 309.013 42.205 311.716 42.205C313.535 42.205 314.674 41.525 315.643 40.097L314.249 39.162C313.705 40.08 312.974 40.522 311.835 40.522C310.407 40.522 309.523 39.451 309.387 38.142H315.762ZM313.739 36.663H309.506C309.778 35.541 310.509 34.691 311.767 34.691C312.855 34.691 313.688 35.524 313.739 36.663ZM329.109 42.001V36.714C329.109 34.436 328.038 33.042 325.556 33.042C324.298 33.042 322.955 33.399 321.918 33.909L322.479 35.456C323.227 35.065 324.196 34.691 325.182 34.691C326.525 34.691 327.052 35.405 327.052 36.595V36.799C326.406 36.663 325.862 36.612 325.403 36.612C323.55 36.612 321.544 37.292 321.544 39.468C321.544 41.304 323.057 42.205 324.689 42.205C325.692 42.205 326.542 41.933 327.171 41.185L327.273 42.001H329.109ZM327.052 39.808C326.457 40.318 325.828 40.675 325.063 40.675C324.264 40.675 323.567 40.284 323.567 39.4C323.567 38.261 324.74 37.955 325.709 37.955C326.1 37.955 326.525 38.006 327.052 38.125V39.808ZM341.562 34.113C340.797 33.399 339.76 33.042 338.672 33.042C337.125 33.042 335.663 33.909 335.663 35.694C335.663 37.258 336.989 37.853 338.026 38.278C338.808 38.601 339.658 38.941 339.658 39.553C339.658 40.25 338.978 40.556 338.349 40.556C337.567 40.556 336.972 40.199 336.343 39.57L335.085 40.76C335.935 41.695 337.108 42.205 338.4 42.205C340.1 42.205 341.698 41.355 341.698 39.417C341.698 37.802 340.27 37.207 339.148 36.765C338.366 36.442 337.635 36.136 337.635 35.541C337.635 35.014 338.077 34.691 338.672 34.691C339.318 34.691 339.981 34.997 340.406 35.371L341.562 34.113ZM351.656 42.001V33.246H349.599V39.06C349.089 39.876 348.239 40.403 347.423 40.403C346.794 40.403 346.352 40.182 346.097 39.74C345.774 39.196 345.757 38.38 345.757 37.649V33.246H343.7V37.802C343.7 39.077 343.836 40.233 344.482 41.083C345.026 41.78 345.842 42.205 346.896 42.205C347.95 42.205 348.987 41.712 349.684 40.709L349.786 42.001H351.656ZM361.317 42.001V36.714C361.317 34.436 360.246 33.042 357.764 33.042C356.506 33.042 355.163 33.399 354.126 33.909L354.687 35.456C355.435 35.065 356.404 34.691 357.39 34.691C358.733 34.691 359.26 35.405 359.26 36.595V36.799C358.614 36.663 358.07 36.612 357.611 36.612C355.758 36.612 353.752 37.292 353.752 39.468C353.752 41.304 355.265 42.205 356.897 42.205C357.9 42.205 358.75 41.933 359.379 41.185L359.481 42.001H361.317ZM359.26 39.808C358.665 40.318 358.036 40.675 357.271 40.675C356.472 40.675 355.775 40.284 355.775 39.4C355.775 38.261 356.948 37.955 357.917 37.955C358.308 37.955 358.733 38.006 359.26 38.125V39.808ZM373.735 39.757C373.242 40.182 372.613 40.403 371.984 40.403C370.624 40.403 369.485 39.247 369.485 37.615C369.485 36.085 370.573 34.844 372.001 34.844C372.647 34.844 373.242 35.082 373.735 35.507L374.755 33.977C373.973 33.382 373.004 33.042 371.933 33.042C369.298 33.042 367.394 35.065 367.394 37.615C367.394 40.352 369.298 42.205 371.848 42.205C373.021 42.205 374.041 41.882 374.806 41.219L373.735 39.757ZM380.366 33.042C377.748 33.042 375.827 35.065 375.827 37.615C375.827 40.182 377.748 42.205 380.366 42.205C382.984 42.205 384.905 40.182 384.905 37.615C384.905 35.065 382.984 33.042 380.366 33.042ZM382.814 37.615C382.814 39.162 381.794 40.403 380.366 40.403C378.938 40.403 377.918 39.162 377.918 37.615C377.918 36.085 378.938 34.844 380.366 34.844C381.794 34.844 382.814 36.085 382.814 37.615ZM400.076 42.001V37.445C400.076 36.153 399.94 34.98 399.277 34.13C398.75 33.45 397.951 33.042 396.931 33.042C395.877 33.042 394.755 33.433 393.956 34.572C393.888 34.436 393.837 34.334 393.769 34.232C393.208 33.45 392.358 33.042 391.406 33.042C390.488 33.042 389.468 33.501 388.788 34.419L388.703 33.246H386.816V42.001H388.873V36.017C389.366 35.388 390.148 34.844 390.845 34.844C391.406 34.844 391.831 35.048 392.069 35.456C392.409 36 392.409 36.867 392.409 37.598V42.001H394.466V37.445C394.466 36.952 394.449 36.459 394.381 36.034C394.908 35.303 395.673 34.844 396.387 34.844C396.999 34.844 397.441 35.065 397.696 35.507C398.002 36.051 398.002 36.867 398.002 37.598V42.001H400.076ZM402.538 33.246V46.251H404.595V41.117C405.275 41.865 406.312 42.205 407.23 42.205C409.729 42.205 411.463 40.046 411.463 37.649C411.463 35.082 409.661 33.042 407.264 33.042C406.295 33.042 405.139 33.433 404.527 34.368L404.408 33.246H402.538ZM404.595 36.204C405.088 35.252 406.04 34.844 406.873 34.844C408.403 34.844 409.372 36.17 409.372 37.598C409.372 38.941 408.556 40.403 406.839 40.403C406.023 40.403 405.19 40.063 404.595 39.298V36.204ZM415.249 33.246H413.362V42.001H415.436V36.102C415.861 35.354 416.49 34.929 417.238 34.929C417.561 34.929 417.816 34.98 418.071 35.116L418.53 33.195C418.207 33.093 417.884 33.042 417.476 33.042C416.575 33.042 415.878 33.637 415.351 34.487L415.249 33.246ZM426.71 42.001V36.714C426.71 34.436 425.639 33.042 423.157 33.042C421.899 33.042 420.556 33.399 419.519 33.909L420.08 35.456C420.828 35.065 421.797 34.691 422.783 34.691C424.126 34.691 424.653 35.405 424.653 36.595V36.799C424.007 36.663 423.463 36.612 423.004 36.612C421.151 36.612 419.145 37.292 419.145 39.468C419.145 41.304 420.658 42.205 422.29 42.205C423.293 42.205 424.143 41.933 424.772 41.185L424.874 42.001H426.71ZM424.653 39.808C424.058 40.318 423.429 40.675 422.664 40.675C421.865 40.675 421.168 40.284 421.168 39.4C421.168 38.261 422.341 37.955 423.31 37.955C423.701 37.955 424.126 38.006 424.653 38.125V39.808ZM433.501 38.142V36.544C434.827 35.898 436.034 35.133 436.034 33.076C436.034 31.546 434.674 29.897 432.549 29.897C430.594 29.897 429.03 31.291 429.03 33.365V33.552H431.053V33.297C431.053 32.277 431.631 31.648 432.549 31.648C433.467 31.648 434.011 32.345 434.011 33.127C434.011 34.521 432.736 34.997 431.376 35.456V38.142H433.501ZM433.569 42.001V39.689H431.308V42.001H433.569Z" fill="#312F4F"/>
<path d="M234.579 67.001V65.969H230.691V63.185H234.579V62.153H230.691V59.633H234.579V58.601H229.539V67.001H234.579ZM239.944 61.517C239.464 61.085 238.78 60.857 238.096 60.857C237.1 60.857 236.164 61.433 236.164 62.645C236.164 63.725 237.088 64.073 237.88 64.385C238.48 64.625 239.032 64.841 239.032 65.309C239.032 65.933 238.54 66.233 237.952 66.233C237.472 66.233 237.04 66.017 236.644 65.597L235.876 66.209C236.344 66.821 237.124 67.145 237.94 67.145C239.068 67.145 240.112 66.605 240.112 65.261C240.112 64.217 239.14 63.773 238.36 63.473C237.784 63.245 237.208 63.017 237.208 62.561C237.208 62.093 237.556 61.769 238.108 61.769C238.516 61.769 239.02 61.973 239.296 62.213L239.944 61.517ZM244.614 61.961V61.001H242.934V59.561H241.842V61.001H241.038V61.961H241.842V64.937C241.842 65.405 241.89 65.849 242.034 66.185C242.286 66.749 242.802 67.121 243.642 67.121C244.038 67.121 244.458 67.013 244.758 66.857L244.458 65.981C244.266 66.077 244.026 66.149 243.786 66.149C243.186 66.149 242.982 65.777 242.946 65.141C242.934 64.961 242.934 64.829 242.934 64.673V61.961H244.614ZM250.539 67.001V63.353C250.539 61.805 249.903 60.857 248.163 60.857C247.335 60.857 246.423 61.121 245.799 61.421L246.123 62.333C246.603 62.069 247.335 61.805 248.031 61.805C249.015 61.805 249.447 62.333 249.447 63.245V63.461C248.931 63.353 248.547 63.329 248.247 63.329C246.927 63.329 245.571 63.797 245.571 65.321C245.571 66.605 246.591 67.145 247.695 67.145C248.463 67.145 249.003 66.917 249.495 66.365V67.001H250.539ZM249.447 65.513C248.967 65.921 248.439 66.233 247.827 66.233C247.191 66.233 246.639 65.969 246.639 65.237C246.639 64.337 247.623 64.157 248.367 64.157C248.667 64.157 249.003 64.181 249.447 64.277V65.513ZM261.565 67.001V63.881C261.565 62.957 261.433 62.117 261.013 61.565C260.677 61.121 260.161 60.857 259.357 60.857C258.541 60.857 257.785 61.229 257.269 61.961C257.233 61.877 257.185 61.769 257.125 61.685C256.753 61.109 256.153 60.857 255.457 60.857C254.761 60.857 254.017 61.277 253.573 61.913V61.001H252.481V67.001H253.573V62.969C253.969 62.417 254.617 61.865 255.229 61.865C255.685 61.865 255.973 62.033 256.153 62.285C256.465 62.729 256.477 63.425 256.477 64.001V67.001H257.569V63.881C257.569 63.521 257.545 63.161 257.497 62.861C257.941 62.273 258.577 61.865 259.153 61.865C259.669 61.865 259.993 62.057 260.185 62.345C260.461 62.777 260.473 63.425 260.473 64.001V67.001H261.565ZM266.065 60.857C264.313 60.857 263.005 62.249 263.005 64.001C263.005 65.753 264.313 67.145 266.065 67.145C267.817 67.145 269.125 65.753 269.125 64.001C269.125 62.249 267.817 60.857 266.065 60.857ZM268.009 64.001C268.009 65.165 267.193 66.137 266.065 66.137C264.937 66.137 264.121 65.165 264.121 64.001C264.121 62.837 264.937 61.865 266.065 61.865C267.193 61.865 268.009 62.837 268.009 64.001ZM274.21 61.517C273.73 61.085 273.046 60.857 272.362 60.857C271.366 60.857 270.43 61.433 270.43 62.645C270.43 63.725 271.354 64.073 272.146 64.385C272.746 64.625 273.298 64.841 273.298 65.309C273.298 65.933 272.806 66.233 272.218 66.233C271.738 66.233 271.306 66.017 270.91 65.597L270.142 66.209C270.61 66.821 271.39 67.145 272.206 67.145C273.334 67.145 274.378 66.605 274.378 65.261C274.378 64.217 273.406 63.773 272.626 63.473C272.05 63.245 271.474 63.017 271.474 62.561C271.474 62.093 271.822 61.769 272.374 61.769C272.782 61.769 273.286 61.973 273.562 62.213L274.21 61.517ZM283.656 67.001V63.353C283.656 61.805 283.02 60.857 281.28 60.857C280.452 60.857 279.54 61.121 278.916 61.421L279.24 62.333C279.72 62.069 280.452 61.805 281.148 61.805C282.132 61.805 282.564 62.333 282.564 63.245V63.461C282.048 63.353 281.664 63.329 281.364 63.329C280.044 63.329 278.688 63.797 278.688 65.321C278.688 66.605 279.708 67.145 280.812 67.145C281.58 67.145 282.12 66.917 282.612 66.365V67.001H283.656ZM282.564 65.513C282.084 65.921 281.556 66.233 280.944 66.233C280.308 66.233 279.756 65.969 279.756 65.237C279.756 64.337 280.74 64.157 281.484 64.157C281.784 64.157 282.12 64.181 282.564 64.277V65.513ZM291.094 61.001H290.002V61.661C289.522 61.169 288.814 60.857 288.118 60.857C286.282 60.857 285.094 62.405 285.094 64.001C285.094 65.753 286.366 67.145 288.094 67.145C288.814 67.145 289.57 66.833 290.002 66.197V70.001H291.094V61.001ZM290.002 65.009C289.69 65.741 288.886 66.137 288.238 66.137C286.99 66.137 286.21 65.129 286.21 64.025C286.21 62.981 286.87 61.865 288.262 61.865C288.874 61.865 289.582 62.189 290.002 62.777V65.009ZM297.274 67.001H298.366V61.001H297.274V64.985C296.842 65.657 296.182 66.137 295.486 66.137C294.958 66.137 294.634 65.945 294.442 65.657C294.154 65.225 294.13 64.589 294.13 64.001V61.001H293.038V64.121C293.038 65.033 293.17 65.837 293.578 66.389C293.926 66.857 294.478 67.145 295.318 67.145C296.122 67.145 296.83 66.725 297.274 66.017V67.001ZM301.48 67.001V61.001H300.388V67.001H301.48ZM301.48 59.825V58.601H300.388V59.825H301.48ZM306.493 61.001V70.001H307.585V66.353C308.065 66.845 308.761 67.145 309.469 67.145C311.305 67.145 312.493 65.597 312.493 64.013C312.493 62.249 311.221 60.857 309.493 60.857C308.773 60.857 308.017 61.181 307.585 61.805V61.001H306.493ZM307.585 63.005C307.885 62.261 308.701 61.865 309.349 61.865C310.597 61.865 311.377 62.873 311.377 63.989C311.377 65.021 310.717 66.137 309.325 66.137C308.701 66.137 307.993 65.813 307.585 65.225V63.005ZM318.613 67.001V63.353C318.613 61.805 317.977 60.857 316.237 60.857C315.409 60.857 314.497 61.121 313.873 61.421L314.197 62.333C314.677 62.069 315.409 61.805 316.105 61.805C317.089 61.805 317.521 62.333 317.521 63.245V63.461C317.005 63.353 316.621 63.329 316.321 63.329C315.001 63.329 313.645 63.797 313.645 65.321C313.645 66.605 314.665 67.145 315.769 67.145C316.537 67.145 317.077 66.917 317.569 66.365V67.001H318.613ZM317.521 65.513C317.041 65.921 316.513 66.233 315.901 66.233C315.265 66.233 314.713 65.969 314.713 65.237C314.713 64.337 315.697 64.157 316.441 64.157C316.741 64.157 317.077 64.181 317.521 64.277V65.513ZM321.648 61.001H320.556V67.001H321.648V62.981C322.02 62.333 322.464 61.973 323.076 61.973C323.304 61.973 323.46 62.009 323.64 62.093L323.844 60.929C323.616 60.881 323.448 60.857 323.196 60.857C322.548 60.857 322.008 61.349 321.648 61.997V61.001ZM329.453 67.001V63.353C329.453 61.805 328.817 60.857 327.077 60.857C326.249 60.857 325.337 61.121 324.713 61.421L325.037 62.333C325.517 62.069 326.249 61.805 326.945 61.805C327.929 61.805 328.361 62.333 328.361 63.245V63.461C327.845 63.353 327.461 63.329 327.161 63.329C325.841 63.329 324.485 63.797 324.485 65.321C324.485 66.605 325.505 67.145 326.609 67.145C327.377 67.145 327.917 66.917 328.409 66.365V67.001H329.453ZM328.361 65.513C327.881 65.921 327.353 66.233 326.741 66.233C326.105 66.233 325.553 65.969 325.553 65.237C325.553 64.337 326.537 64.157 327.281 64.157C327.581 64.157 327.917 64.181 328.361 64.277V65.513ZM337.227 61.961V61.001H335.547V59.561H334.455V61.001H333.651V61.961H334.455V64.937C334.455 65.405 334.503 65.849 334.647 66.185C334.899 66.749 335.415 67.121 336.255 67.121C336.651 67.121 337.071 67.013 337.371 66.857L337.071 65.981C336.879 66.077 336.639 66.149 336.399 66.149C335.799 66.149 335.595 65.777 335.559 65.141C335.547 64.961 335.547 64.829 335.547 64.673V61.961H337.227ZM343.704 64.277C343.728 64.121 343.752 63.857 343.752 63.653C343.752 62.045 342.6 60.857 341.016 60.857C339.348 60.857 338.04 62.213 338.04 64.001C338.04 65.753 339.108 67.145 341.016 67.145C342.228 67.145 343.044 66.701 343.644 65.741L342.852 65.237C342.492 65.921 341.856 66.209 341.064 66.209C339.912 66.209 339.204 65.309 339.132 64.277H343.704ZM341.028 61.793C341.928 61.793 342.576 62.549 342.624 63.401H339.216C339.432 62.501 340.056 61.793 341.028 61.793ZM352.867 67.001V63.353C352.867 61.805 352.231 60.857 350.491 60.857C349.663 60.857 348.751 61.121 348.127 61.421L348.451 62.333C348.931 62.069 349.663 61.805 350.359 61.805C351.343 61.805 351.775 62.333 351.775 63.245V63.461C351.259 63.353 350.875 63.329 350.575 63.329C349.255 63.329 347.899 63.797 347.899 65.321C347.899 66.605 348.919 67.145 350.023 67.145C350.791 67.145 351.331 66.917 351.823 66.365V67.001H352.867ZM351.775 65.513C351.295 65.921 350.767 66.233 350.155 66.233C349.519 66.233 348.967 65.969 348.967 65.237C348.967 64.337 349.951 64.157 350.695 64.157C350.995 64.157 351.331 64.181 351.775 64.277V65.513ZM355.997 59.825V58.601H354.905V59.825H355.997ZM355.997 61.001H354.905V67.313C354.905 68.081 354.845 68.681 354.065 68.681C353.813 68.681 353.573 68.609 353.393 68.513L353.081 69.401C353.405 69.581 353.801 69.665 354.233 69.665C355.097 69.665 355.601 69.257 355.829 68.669C355.961 68.333 355.997 67.961 355.997 67.529V61.001ZM362.173 67.001H363.265V61.001H362.173V64.985C361.741 65.657 361.081 66.137 360.385 66.137C359.857 66.137 359.533 65.945 359.341 65.657C359.053 65.225 359.029 64.589 359.029 64.001V61.001H357.937V64.121C357.937 65.033 358.069 65.837 358.477 66.389C358.825 66.857 359.377 67.145 360.217 67.145C361.021 67.145 361.729 66.725 362.173 66.017V67.001ZM367.782 67.145C368.502 67.145 369.258 66.833 369.69 66.197V67.001H370.782V58.001H369.69V61.661C369.21 61.169 368.502 60.857 367.806 60.857C365.97 60.857 364.782 62.405 364.782 64.001C364.782 65.753 366.054 67.145 367.782 67.145ZM367.926 66.137C366.678 66.137 365.898 65.129 365.898 64.025C365.898 62.981 366.558 61.865 367.95 61.865C368.562 61.865 369.27 62.189 369.69 62.777V65.009C369.378 65.741 368.574 66.137 367.926 66.137ZM377.406 67.001V63.353C377.406 61.805 376.77 60.857 375.03 60.857C374.202 60.857 373.29 61.121 372.666 61.421L372.99 62.333C373.47 62.069 374.202 61.805 374.898 61.805C375.882 61.805 376.314 62.333 376.314 63.245V63.461C375.798 63.353 375.414 63.329 375.114 63.329C373.794 63.329 372.438 63.797 372.438 65.321C372.438 66.605 373.458 67.145 374.562 67.145C375.33 67.145 375.87 66.917 376.362 66.365V67.001H377.406ZM376.314 65.513C375.834 65.921 375.306 66.233 374.694 66.233C374.058 66.233 373.506 65.969 373.506 65.237C373.506 64.337 374.49 64.157 375.234 64.157C375.534 64.157 375.87 64.181 376.314 64.277V65.513ZM380.44 61.001H379.348V67.001H380.44V62.981C380.812 62.333 381.256 61.973 381.868 61.973C382.096 61.973 382.252 62.009 382.432 62.093L382.636 60.929C382.408 60.881 382.24 60.857 381.988 60.857C381.34 60.857 380.8 61.349 380.44 61.997V61.001ZM384.156 67.001V65.609H382.896V67.001H384.156Z" fill="#312F4F"/>
</g>
<defs>
<clipPath id="clip0">
<rect width="640" height="196" fill="white" transform="translate(0 0.000976562)"/>
</clipPath>
</defs>
</svg>
