<svg width="78" height="32" viewBox="0 0 78 32" fill="none" xmlns="http://www.w3.org/2000/svg">
<path fill-rule="evenodd" clip-rule="evenodd" d="M36.2042 0H42.0972V5.08167H36.2042V0ZM25.9668 0.00387317H31.8598V31.4965H25.9668V0.00387317ZM-7.62939e-05 20.7057C-7.62939e-05 14.4678 5.00482 9.4104 11.1779 9.4104C17.351 9.4104 22.3559 14.4678 22.3559 20.7057C22.3559 26.9436 17.351 32.001 11.1779 32.001C5.00482 32.001 -7.62939e-05 26.9436 -7.62939e-05 20.7057ZM5.68895 20.7037C5.68895 23.768 8.14739 26.2502 11.1779 26.2502C14.2085 26.2502 16.6669 23.768 16.6669 20.7037C16.6669 17.6393 14.2085 15.1571 11.1779 15.1571C8.14539 15.1571 5.68895 17.6393 5.68895 20.7037ZM54.9241 18.1013C53.0978 17.3453 51.4795 16.6317 51.4795 15.2451C51.4795 14.196 52.4757 13.5653 53.5959 13.5653C55.2562 13.5653 56.7905 14.4042 57.9127 15.4129L60.3531 10.9679C57.8867 9.47212 56.5024 8.90412 53.5979 8.90412C49.6132 8.90412 45.7965 11.1721 45.7965 15.6635C45.7965 19.5263 48.659 21.0383 51.2735 22.1722C51.5161 22.2808 51.7566 22.3857 51.9924 22.4885L51.9931 22.4888L51.9947 22.4895L51.9948 22.4896C53.8559 23.3011 55.4242 23.9849 55.4242 25.364C55.4242 26.7081 53.8479 27.2964 52.6437 27.2964C50.5273 27.2964 49.1571 26.3302 47.4968 24.6929L45.1484 28.9094C47.6148 30.9024 49.5311 31.998 52.9338 31.998C57.1665 31.998 61.3173 29.7725 61.3173 24.9011C61.3153 20.765 57.8464 19.3192 55.046 18.1521L54.9241 18.1013ZM36.204 9.4104H42.0971V31.4977H36.204V9.4104ZM76.1758 26.2905C75.4296 26.6684 74.7235 26.9211 73.8093 26.9211C72.5651 26.9211 72.067 26.1227 71.901 24.8209C71.819 24.1903 71.819 23.6041 71.819 22.931V14.3645H77.38V9.41018H71.819V4.53874H66.8381L65.9259 9.41018H63.3114V14.3645H65.9259V23.5596C65.9259 24.8614 66.0099 26.1631 66.34 27.2546C67.1281 30.1108 69.4105 31.9987 72.8132 31.9987C74.5155 31.9987 76.5898 31.5358 78.0001 30.697L76.1758 26.2905Z" fill="#0C29D0"/>
</svg>
