<svg width="186" height="32" viewBox="0 0 186 32" fill="none" xmlns="http://www.w3.org/2000/svg">
<path fill-rule="evenodd" clip-rule="evenodd" d="M119.568 13.2269V23.046C119.568 23.6099 119.568 24.089 119.612 24.7398C119.742 27.042 120.482 28.3901 122.654 28.3901C123.523 28.3901 124.393 28.1294 125.088 27.7817L126.173 30.953C125.088 31.5169 123.566 31.9091 122.133 31.9091C119.091 31.9091 117.223 30.5629 116.31 28.5195C115.788 27.3027 115.614 25.6958 115.614 24V13.2269H112.704V9.7504H115.614V4.53564H119.568V9.7504H125.65V13.2269H119.568ZM108.142 14.1404C107.143 13.2713 105.318 12.5336 103.841 12.5336C101.842 12.5336 100.583 13.7059 100.583 15.4017C100.583 17.051 102.663 17.8757 104.747 18.7013L104.754 18.7044C107.578 19.7898 111.097 21.3986 111.097 25.1783C111.097 30.0454 107.317 32 103.232 32C100.277 32 97.4537 30.8277 95.7599 28.6104L98.5412 26.3951C99.9742 27.9151 101.539 28.6973 103.277 28.6973C105.405 28.6973 107.188 27.6119 107.188 25.3522C107.188 23.6754 105.229 22.892 103.082 22.0333L103.016 22.007L102.891 21.9578C100.052 20.8401 96.8029 19.5612 96.8029 15.7069C96.8029 11.3188 100.192 9.23291 103.798 9.23291C106.274 9.23291 108.752 10.0576 110.489 11.622L108.142 14.1404ZM137.945 31.998C144.29 31.998 149.025 26.9571 149.025 20.6145C149.025 14.2699 144.29 9.23096 137.945 9.23096C131.6 9.23096 126.865 14.2699 126.865 20.6145C126.865 26.9591 131.602 31.998 137.945 31.998ZM130.909 20.6145C130.909 16.4002 133.862 12.8813 137.947 12.8813C142.032 12.8813 144.985 16.4002 144.985 20.6145C144.985 24.8287 142.032 28.3477 137.947 28.3477C133.864 28.3477 130.909 24.8287 130.909 20.6145ZM162.321 9.23096C159.975 9.23096 158.022 11.0098 156.718 13.3547V9.75243H152.765V31.4765H156.718V16.9217C158.064 14.5751 159.673 13.2714 161.888 13.2714C162.713 13.2714 163.279 13.4007 163.93 13.7059L164.667 9.49169C163.841 9.31787 163.232 9.23096 162.321 9.23096ZM168.666 21.615C168.927 25.3514 171.49 28.6084 175.661 28.6084C178.529 28.6084 180.831 27.5655 182.135 25.0895L185.003 26.9146C182.83 30.3911 179.877 31.998 175.487 31.998C168.579 31.998 164.712 26.9591 164.712 20.6145C164.712 14.1405 169.448 9.23096 175.487 9.23096C181.223 9.23096 185.393 13.5321 185.393 19.3553C185.393 20.093 185.306 21.049 185.219 21.615H168.666ZM181.308 18.4417H168.969C169.751 15.1835 172.011 12.6205 175.53 12.6185C178.788 12.6185 181.134 15.3573 181.308 18.4417Z" fill="#0C29D0"/>
<path fill-rule="evenodd" clip-rule="evenodd" d="M37.189 0H43.1435V5.08135H37.189V0ZM26.8443 0.00406901H32.7989V31.4947H26.8443V0.00406901ZM0.606873 20.7034C0.606873 14.466 5.66397 9.40885 11.9015 9.40885C18.139 9.40885 23.1961 14.466 23.1961 20.7034C23.1961 26.9409 18.139 31.998 11.9015 31.998C5.66397 31.998 0.606873 26.9409 0.606873 20.7034ZM6.35523 20.7014C6.35523 23.7656 8.83931 26.2477 11.9015 26.2477C14.9636 26.2477 17.4477 23.7656 17.4477 20.7014C17.4477 17.6373 14.9636 15.1552 11.9015 15.1552C8.83729 15.1552 6.35523 17.6373 6.35523 20.7014ZM56.1036 18.1C54.2582 17.3441 52.623 16.6306 52.623 15.2441C52.623 14.195 53.6296 13.5644 54.7615 13.5644C56.4391 13.5644 57.9894 14.4032 59.1233 15.4118L61.5892 10.9672C59.097 9.47145 57.6983 8.90348 54.7635 8.90348C50.7372 8.90348 46.8807 11.1713 46.8807 15.6625C46.8807 19.525 49.7731 21.0369 52.4148 22.1708C52.6608 22.2797 52.9046 22.385 53.1436 22.4881L53.1437 22.4881C55.0242 23.2995 56.6089 23.9833 56.6089 25.3623C56.6089 26.7064 55.0162 27.2946 53.7994 27.2946C51.6609 27.2946 50.2764 26.3284 48.5988 24.6913L46.2258 28.9075C48.718 30.9005 50.6543 31.996 54.0924 31.996C58.3694 31.996 62.5634 29.7706 62.5634 24.8994C62.5614 20.7636 59.0563 19.3179 56.2268 18.1509L56.1036 18.1ZM37.189 9.40885H43.1435V31.4948H37.189V9.40885ZM77.577 26.2881C76.8231 26.666 76.1096 26.9187 75.1859 26.9187C73.9287 26.9187 73.4254 26.1203 73.2577 24.8186C73.1748 24.188 73.1748 23.6019 73.1748 22.9288V14.3628H78.7938V9.40883H73.1748V4.53768H68.142L67.2203 9.40883H64.5785V14.3628H67.2203V23.5574C67.2203 24.8591 67.3052 26.1607 67.6387 27.2522C68.435 30.1082 70.7413 31.996 74.1794 31.996C75.8994 31.996 77.9954 31.5331 79.4204 30.6943L77.577 26.2881Z" fill="#0C29D0"/>
</svg>
